<svg width="289" height="60" viewBox="0 0 289 60" fill="none" xmlns="http://www.w3.org/2000/svg">
<line x1="11" y1="52" x2="277" y2="52" stroke="white" stroke-width="2"/>
<path d="M0.11165 52.4992L15.8767 46.238L15.6833 59.2269L0.11165 52.4992Z" fill="white"/>
<path d="M288.12 52.8415L272.266 59.079L272.478 46.0903L288.12 52.8415Z" fill="white"/>
<path d="M59.05 5.5C60.0833 5.7 60.85 6.05 61.35 6.55C61.8833 7.05 62.15 7.63333 62.15 8.3C62.15 9.4 61.8333 10.2 61.2 10.7C60.6 11.2 59.6333 11.4 58.3 11.3C55.3 11.0667 52.95 10.9167 51.25 10.85C49.5833 10.75 47.3833 10.6833 44.65 10.65C43.4167 16.7833 42.2833 22.95 41.25 29.15C40.8833 31.4167 40.5 34.05 40.1 37.05C39.7 40.0167 39.4333 42.4167 39.3 44.25C39.2333 45.2167 38.8333 45.9667 38.1 46.5C37.3667 47 36.4833 47.25 35.45 47.25C34.35 47.25 33.5 46.9833 32.9 46.45C32.3 45.9167 32 45.2167 32 44.35C32 43.55 32.1167 42.2333 32.35 40.4C32.6167 38.5333 32.9167 36.5833 33.25 34.55C33.6167 32.5167 33.9 30.75 34.1 29.25C34.4667 26.7167 34.8833 24.2 35.35 21.7C35.8167 19.2 36.2833 16.8333 36.75 14.6C36.85 14.1 36.9667 13.5333 37.1 12.9C37.2333 12.2333 37.3833 11.5 37.55 10.7C34.2833 10.8 31.7167 11.0667 29.85 11.5C27.9833 11.9333 26.65 12.55 25.85 13.35C25.0833 14.1167 24.7 15.1167 24.7 16.35C24.7 17.4833 25.0333 18.5667 25.7 19.6C25.8333 19.8333 25.9 20.0833 25.9 20.35C25.9 20.9833 25.5167 21.5833 24.75 22.15C24.0167 22.6833 23.25 22.95 22.45 22.95C21.8833 22.95 21.4167 22.7833 21.05 22.45C20.3833 21.8833 19.8333 21.0833 19.4 20.05C18.9667 18.9833 18.75 17.7833 18.75 16.45C18.75 13.6167 19.6667 11.35 21.5 9.65C23.3667 7.91667 26.1833 6.65 29.95 5.85C33.75 5.05 38.6167 4.65 44.55 4.65C48.2167 4.65 51.1333 4.71666 53.3 4.85C55.5 4.98333 57.4167 5.2 59.05 5.5ZM82.0133 35.85C82.4466 35.85 82.78 36.05 83.0133 36.45C83.2799 36.85 83.4133 37.4 83.4133 38.1C83.4133 39.4333 83.0966 40.4667 82.4633 41.2C80.93 42.9667 79.3466 44.4167 77.7133 45.55C76.1133 46.6833 74.2799 47.25 72.2133 47.25C70.5133 47.25 69.2299 46.7667 68.3633 45.8C67.4966 44.8 67.0633 43.3667 67.0633 41.5C67.0633 40.5667 67.2966 38.9 67.7633 36.5C68.1966 34.4 68.4133 32.95 68.4133 32.15C68.4133 31.6167 68.2299 31.35 67.8633 31.35C67.4299 31.35 66.8133 31.9167 66.0133 33.05C65.2133 34.15 64.4133 35.6167 63.6133 37.45C62.8133 39.2833 62.1633 41.2167 61.6633 43.25C61.0299 45.9167 59.4633 47.25 56.9633 47.25C55.9633 47.25 55.2966 46.9 54.9633 46.2C54.6633 45.4667 54.5133 44.1667 54.5133 42.3C54.5133 41.2333 54.5299 40.3833 54.5633 39.75L54.6133 35.75C54.6133 30.6167 55.1299 25.2667 56.1633 19.7C57.2299 14.1333 58.7799 9.46666 60.8133 5.7C62.8799 1.9 65.3466 -2.86102e-06 68.2133 -2.86102e-06C69.7466 -2.86102e-06 70.9799 0.666664 71.9133 2C72.8799 3.3 73.3633 5 73.3633 7.1C73.3633 10.4667 72.3799 13.9667 70.4133 17.6C68.4466 21.2 65.2466 25.4167 60.8133 30.25C60.7133 31.9833 60.6633 33.7667 60.6633 35.6C61.7633 32.7667 62.9799 30.4667 64.3133 28.7C65.6799 26.9 67.0133 25.6167 68.3133 24.85C69.6466 24.0833 70.8633 23.7 71.9633 23.7C74.1299 23.7 75.2133 24.7833 75.2133 26.95C75.2133 28.25 74.8466 30.6 74.1133 34C73.4799 36.9 73.1633 38.8167 73.1633 39.75C73.1633 41.0833 73.6466 41.75 74.6133 41.75C75.2799 41.75 76.0633 41.35 76.9633 40.55C77.8966 39.7167 79.1299 38.3833 80.6633 36.55C81.0633 36.0833 81.5133 35.85 82.0133 35.85ZM67.1633 4.95C66.5633 4.95 65.8966 5.81667 65.1633 7.55C64.4299 9.25 63.7133 11.5667 63.0133 14.5C62.3466 17.4 61.7966 20.5667 61.3633 24C63.4299 21.5667 65.1299 18.9167 66.4633 16.05C67.8299 13.1833 68.5133 10.5833 68.5133 8.25C68.5133 7.18333 68.3966 6.36666 68.1633 5.8C67.9299 5.23333 67.5966 4.95 67.1633 4.95ZM85.5109 47.25C83.4443 47.25 81.7943 46.5 80.5609 45C79.3276 43.5 78.7109 41.5333 78.7109 39.1C78.7109 36.4333 79.3276 33.9167 80.5609 31.55C81.7943 29.15 83.4276 27.2333 85.4609 25.8C87.5276 24.3333 89.7109 23.6 92.0109 23.6C92.7443 23.6 93.2276 23.75 93.4609 24.05C93.7276 24.3167 93.9443 24.8167 94.1109 25.55C94.8109 25.4167 95.5443 25.35 96.3109 25.35C97.9443 25.35 98.7609 25.9333 98.7609 27.1C98.7609 27.8 98.5109 29.4667 98.0109 32.1C97.2443 35.9333 96.8609 38.6 96.8609 40.1C96.8609 40.6 96.9776 41 97.2109 41.3C97.4776 41.6 97.8109 41.75 98.2109 41.75C98.8443 41.75 99.6109 41.35 100.511 40.55C101.411 39.7167 102.628 38.3833 104.161 36.55C104.561 36.0833 105.011 35.85 105.511 35.85C105.944 35.85 106.278 36.05 106.511 36.45C106.778 36.85 106.911 37.4 106.911 38.1C106.911 39.4333 106.594 40.4667 105.961 41.2C104.594 42.9 103.144 44.3333 101.611 45.5C100.078 46.6667 98.5943 47.25 97.1609 47.25C96.0609 47.25 95.0443 46.8833 94.1109 46.15C93.2109 45.3833 92.5276 44.35 92.0609 43.05C90.3276 45.85 88.1443 47.25 85.5109 47.25ZM87.3109 42.2C88.0443 42.2 88.7443 41.7667 89.4109 40.9C90.0776 40.0333 90.5609 38.8833 90.8609 37.45L92.7109 28.25C91.3109 28.2833 90.0109 28.8167 88.8109 29.85C87.6443 30.85 86.7109 32.1833 86.0109 33.85C85.3109 35.5167 84.9609 37.2833 84.9609 39.15C84.9609 40.1833 85.1609 40.95 85.5609 41.45C85.9943 41.95 86.5776 42.2 87.3109 42.2ZM106.397 47.25C105.131 47.25 104.231 46.5833 103.697 45.25C103.197 43.9167 102.947 41.7833 102.947 38.85C102.947 34.5167 103.564 30.4 104.797 26.5C105.097 25.5333 105.581 24.8333 106.247 24.4C106.947 23.9333 107.914 23.7 109.147 23.7C109.814 23.7 110.281 23.7833 110.547 23.95C110.814 24.1167 110.947 24.4333 110.947 24.9C110.947 25.4333 110.697 26.6333 110.197 28.5C109.864 29.8333 109.597 31 109.397 32C109.197 33 109.031 34.2333 108.897 35.7C109.997 32.8333 111.231 30.5 112.597 28.7C113.964 26.9 115.297 25.6167 116.597 24.85C117.931 24.0833 119.147 23.7 120.247 23.7C122.414 23.7 123.497 24.7833 123.497 26.95C123.497 28.25 123.131 30.6 122.397 34C121.764 36.9 121.447 38.8167 121.447 39.75C121.447 41.0833 121.931 41.75 122.897 41.75C123.564 41.75 124.347 41.35 125.247 40.55C126.181 39.7167 127.414 38.3833 128.947 36.55C129.347 36.0833 129.797 35.85 130.297 35.85C130.731 35.85 131.064 36.05 131.297 36.45C131.564 36.85 131.697 37.4 131.697 38.1C131.697 39.4333 131.381 40.4667 130.747 41.2C129.314 42.9667 127.764 44.4167 126.097 45.55C124.464 46.6833 122.597 47.25 120.497 47.25C118.797 47.25 117.514 46.7667 116.647 45.8C115.781 44.8 115.347 43.3667 115.347 41.5C115.347 40.5667 115.581 38.9 116.047 36.5C116.481 34.4 116.697 32.95 116.697 32.15C116.697 31.6167 116.514 31.35 116.147 31.35C115.714 31.35 115.097 31.9167 114.297 33.05C113.531 34.15 112.731 35.6167 111.897 37.45C111.097 39.2833 110.447 41.2167 109.947 43.25C109.581 44.8167 109.147 45.8833 108.647 46.45C108.181 46.9833 107.431 47.25 106.397 47.25ZM145.352 23.7C146.419 23.7 147.219 23.9833 147.752 24.55C148.319 25.0833 148.602 25.8833 148.602 26.95C148.602 27.8167 148.419 29.45 148.052 31.85C147.719 33.8833 147.452 35.8167 147.252 37.65C147.052 39.45 146.952 41.4667 146.952 43.7C146.952 44.9667 146.685 45.8833 146.152 46.45C145.652 46.9833 144.819 47.25 143.652 47.25C142.552 47.25 141.752 46.9667 141.252 46.4C140.752 45.8333 140.502 44.9833 140.502 43.85C140.502 42.5167 140.735 40.3167 141.202 37.25C141.602 34.5833 141.802 32.8833 141.802 32.15C141.802 31.6167 141.619 31.35 141.252 31.35C140.819 31.35 140.202 31.9167 139.402 33.05C138.602 34.15 137.802 35.6167 137.002 37.45C136.202 39.2833 135.552 41.2167 135.052 43.25C134.685 44.8167 134.252 45.8833 133.752 46.45C133.285 46.9833 132.535 47.25 131.502 47.25C130.469 47.25 129.702 46.8833 129.202 46.15C128.735 45.3833 128.419 44.2167 128.252 42.65C128.085 41.0833 128.002 38.7833 128.002 35.75C128.002 30.6167 128.519 25.2667 129.552 19.7C130.619 14.1333 132.169 9.46666 134.202 5.7C136.269 1.9 138.735 -2.86102e-06 141.602 -2.86102e-06C143.135 -2.86102e-06 144.369 0.666664 145.302 2C146.269 3.3 146.752 5 146.752 7.1C146.752 10.4667 145.769 13.9667 143.802 17.6C141.835 21.2 138.635 25.4167 134.202 30.25C134.102 31.9833 134.052 33.7667 134.052 35.6C135.152 32.7667 136.369 30.4667 137.702 28.7C139.069 26.9 140.402 25.6167 141.702 24.85C143.035 24.0833 144.252 23.7 145.352 23.7ZM140.552 4.95C139.952 4.95 139.285 5.81667 138.552 7.55C137.819 9.25 137.102 11.5667 136.402 14.5C135.735 17.4 135.185 20.5667 134.752 24C136.819 21.5667 138.519 18.9167 139.852 16.05C141.219 13.1833 141.902 10.5833 141.902 8.25C141.902 7.18333 141.785 6.36666 141.552 5.8C141.319 5.23333 140.985 4.95 140.552 4.95Z" fill="white"/>
<path d="M167.4 47.25C165.467 47.25 163.283 47.0833 160.85 46.75C159.517 46.5833 158.6 46.2333 158.1 45.7C157.6 45.1667 157.383 44.3 157.45 43.1C157.683 39.8 158.233 35.7333 159.1 30.9C159.967 26.0333 161.017 21.35 162.25 16.85C162.483 16.0167 162.95 15.4333 163.65 15.1C164.35 14.7667 165.267 14.6 166.4 14.6C168.433 14.6 169.45 15.1667 169.45 16.3C169.45 16.7667 169.35 17.3 169.15 17.9C168.283 20.5667 167.417 24.15 166.55 28.65C165.683 33.1167 165.067 37.3833 164.7 41.45C165.7 41.55 166.833 41.6 168.1 41.6C173.933 41.6 178.283 39.8333 181.15 36.3C184.05 32.7667 185.5 28.05 185.5 22.15C185.5 18.1833 184.367 15.1167 182.1 12.95C179.833 10.7833 176.633 9.7 172.5 9.7C169.833 9.7 167.183 10.1167 164.55 10.95C161.95 11.7833 159.6 12.8833 157.5 14.25C157.067 14.55 156.6 14.7 156.1 14.7C155.533 14.7 155.083 14.4667 154.75 14C154.417 13.5 154.25 12.9 154.25 12.2C154.25 11.4 154.383 10.75 154.65 10.25C154.917 9.71666 155.367 9.23333 156 8.8C158.3 7.23333 161 6.05 164.1 5.25C167.2 4.41667 170.183 4 173.05 4C177.117 4 180.633 4.71667 183.6 6.15C186.567 7.55 188.85 9.61667 190.45 12.35C192.05 15.0833 192.85 18.3833 192.85 22.25C192.85 27.2833 191.85 31.6833 189.85 35.45C187.85 39.1833 184.933 42.0833 181.1 44.15C177.267 46.2167 172.7 47.25 167.4 47.25ZM221.697 31.65C222.13 31.65 222.464 31.8667 222.697 32.3C222.93 32.7333 223.047 33.2833 223.047 33.95C223.047 35.55 222.564 36.5 221.597 36.8C219.597 37.5 217.397 37.9 214.997 38C214.364 40.8 213.114 43.05 211.247 44.75C209.38 46.4167 207.264 47.25 204.897 47.25C202.897 47.25 201.18 46.7667 199.747 45.8C198.347 44.8333 197.28 43.55 196.547 41.95C195.814 40.35 195.447 38.6167 195.447 36.75C195.447 34.2167 195.93 31.9667 196.897 30C197.864 28 199.197 26.45 200.897 25.35C202.597 24.2167 204.48 23.65 206.547 23.65C209.08 23.65 211.114 24.5333 212.647 26.3C214.214 28.0333 215.13 30.1833 215.397 32.75C216.964 32.65 218.83 32.3167 220.997 31.75C221.264 31.6833 221.497 31.65 221.697 31.65ZM205.297 41.95C206.364 41.95 207.28 41.5167 208.047 40.65C208.847 39.7833 209.38 38.5333 209.647 36.9C208.614 36.2 207.814 35.2833 207.247 34.15C206.714 33.0167 206.447 31.8167 206.447 30.55C206.447 30.0167 206.497 29.4833 206.597 28.95H206.347C205.014 28.95 203.897 29.6 202.997 30.9C202.13 32.1667 201.697 33.9667 201.697 36.3C201.697 38.1333 202.047 39.5333 202.747 40.5C203.48 41.4667 204.33 41.95 205.297 41.95ZM224.905 47.25C222.839 47.25 221.189 46.5 219.955 45C218.722 43.5 218.105 41.5333 218.105 39.1C218.105 36.4333 218.722 33.9167 219.955 31.55C221.189 29.15 222.822 27.2333 224.855 25.8C226.922 24.3333 229.105 23.6 231.405 23.6C232.139 23.6 232.622 23.75 232.855 24.05C233.122 24.3167 233.339 24.8167 233.505 25.55C234.205 25.4167 234.939 25.35 235.705 25.35C237.339 25.35 238.155 25.9333 238.155 27.1C238.155 27.8 237.905 29.4667 237.405 32.1C236.639 35.9333 236.255 38.6 236.255 40.1C236.255 40.6 236.372 41 236.605 41.3C236.872 41.6 237.205 41.75 237.605 41.75C238.239 41.75 239.005 41.35 239.905 40.55C240.805 39.7167 242.022 38.3833 243.555 36.55C243.955 36.0833 244.405 35.85 244.905 35.85C245.339 35.85 245.672 36.05 245.905 36.45C246.172 36.85 246.305 37.4 246.305 38.1C246.305 39.4333 245.989 40.4667 245.355 41.2C243.989 42.9 242.539 44.3333 241.005 45.5C239.472 46.6667 237.989 47.25 236.555 47.25C235.455 47.25 234.439 46.8833 233.505 46.15C232.605 45.3833 231.922 44.35 231.455 43.05C229.722 45.85 227.539 47.25 224.905 47.25ZM226.705 42.2C227.439 42.2 228.139 41.7667 228.805 40.9C229.472 40.0333 229.955 38.8833 230.255 37.45L232.105 28.25C230.705 28.2833 229.405 28.8167 228.205 29.85C227.039 30.85 226.105 32.1833 225.405 33.85C224.705 35.5167 224.355 37.2833 224.355 39.15C224.355 40.1833 224.555 40.95 224.955 41.45C225.389 41.95 225.972 42.2 226.705 42.2ZM245.792 47.25C244.525 47.25 243.625 46.5833 243.092 45.25C242.592 43.9167 242.342 41.7833 242.342 38.85C242.342 34.5167 242.958 30.4 244.192 26.5C244.492 25.5333 244.975 24.8333 245.642 24.4C246.342 23.9333 247.308 23.7 248.542 23.7C249.208 23.7 249.675 23.7833 249.942 23.95C250.208 24.1167 250.342 24.4333 250.342 24.9C250.342 25.4333 250.092 26.6333 249.592 28.5C249.258 29.8333 248.992 31 248.792 32C248.592 33 248.425 34.2333 248.292 35.7C249.392 32.8333 250.625 30.5 251.992 28.7C253.358 26.9 254.692 25.6167 255.992 24.85C257.325 24.0833 258.542 23.7 259.642 23.7C260.708 23.7 261.508 23.9833 262.042 24.55C262.608 25.0833 262.892 25.8833 262.892 26.95C262.892 27.8167 262.708 29.45 262.342 31.85C262.008 33.8833 261.742 35.8167 261.542 37.65C261.342 39.45 261.242 41.4667 261.242 43.7C261.242 44.9667 260.975 45.8833 260.442 46.45C259.942 46.9833 259.108 47.25 257.942 47.25C256.842 47.25 256.042 46.9667 255.542 46.4C255.042 45.8333 254.792 44.9833 254.792 43.85C254.792 42.5167 255.025 40.3167 255.492 37.25C255.892 34.5833 256.092 32.8833 256.092 32.15C256.092 31.6167 255.908 31.35 255.542 31.35C255.108 31.35 254.492 31.9167 253.692 33.05C252.925 34.15 252.125 35.6167 251.292 37.45C250.492 39.2833 249.842 41.2167 249.342 43.25C248.975 44.8167 248.542 45.8833 248.042 46.45C247.575 46.9833 246.825 47.25 245.792 47.25Z" fill="white"/>
</svg>
